<svg xmlns="http://www.w3.org/2000/svg" viewBox="0 0 1024 1024">
  <path d="M928 160H96c-17.7 0-32 14.3-32 32v640c0 17.7 14.3 32 32 32h832c17.7 0 32-14.3 32-32V192c0-17.7-14.3-32-32-32zM338 304c0-4.4 3.6-8 8-8h60c4.4 0 8 3.6 8 8v504c0 4.4-3.6 8-8 8h-60c-4.4 0-8-3.6-8-8V304zm284 0c0-4.4 3.6-8 8-8h60c4.4 0 8 3.6 8 8v504c0 4.4-3.6 8-8 8h-60c-4.4 0-8-3.6-8-8V304zM208 304c0-4.4 3.6-8 8-8h60c4.4 0 8 3.6 8 8v504c0 4.4-3.6 8-8 8h-60c-4.4 0-8-3.6-8-8V304zm560 0c0-4.4 3.6-8 8-8h60c4.4 0 8 3.6 8 8v504c0 4.4-3.6 8-8 8h-60c-4.4 0-8-3.6-8-8V304z" fill="currentColor"/>
</svg>
