<svg xmlns="http://www.w3.org/2000/svg" viewBox="0 0 1024 1024">
  <path d="M880 112H144c-17.7 0-32 14.3-32 32v736c0 17.7 14.3 32 32 32h736c17.7 0 32-14.3 32-32V144c0-17.7-14.3-32-32-32zm-40 728H184V184h656v656z" fill="currentColor"/>
  <path d="M292 400h440c4.4 0 8-3.6 8-8v-48c0-4.4-3.6-8-8-8H292c-4.4 0-8 3.6-8 8v48c0 4.4 3.6 8 8 8zm0 144h440c4.4 0 8-3.6 8-8v-48c0-4.4-3.6-8-8-8H292c-4.4 0-8 3.6-8 8v48c0 4.4 3.6 8 8 8zm0 144h440c4.4 0 8-3.6 8-8v-48c0-4.4-3.6-8-8-8H292c-4.4 0-8 3.6-8 8v48c0 4.4 3.6 8 8 8z" fill="currentColor"/>
</svg>
