<svg xmlns="http://www.w3.org/2000/svg" viewBox="0 0 1024 1024">
  <path d="M896 256H128c-17.7 0-32 14.3-32 32v448c0 17.7 14.3 32 32 32h768c17.7 0 32-14.3 32-32V288c0-17.7-14.3-32-32-32zm-40 448H168V328h688v376z" fill="currentColor"/>
  <path d="M327.8 513.4c-5.5 1.5-10.8 4.7-14.3 11.3L215 680.8c-5 9.5-1.5 21.2 8 26.2s21.2 1.5 26.2-8l77.2-146.3 102.8 35.4c10.2 3.5 21.4-1.9 24.9-12.1s-1.9-21.4-12.1-24.9l-114.2-39.3zM512 414.5c13.3 0 24-10.7 24-24s-10.7-24-24-24-24 10.7-24 24 10.7 24 24 24z" fill="currentColor"/>
  <path d="M696.2 513.4c5.5 1.5 10.8 4.7 14.3 11.3L809 680.8c5 9.5 1.5 21.2-8 26.2s-21.2 1.5-26.2-8l-77.2-146.3-102.8 35.4c-10.2 3.5-21.4-1.9-24.9-12.1s1.9-21.4 12.1-24.9l114.2-39.3z" fill="currentColor"/>
</svg>
