<svg version="1.0" xmlns="http://www.w3.org/2000/svg" width="800.000000" height="800.000000" viewBox="0 0 800.000000 800.000000" preserveAspectRatio="xMidYMid meet">
  <metadata>
    <rdf:RDF xmlns:rdf="http://www.w3.org/1999/02/22-rdf-syntax-ns#" xmlns:rdfs="http://www.w3.org/2000/01/rdf-schema#" xmlns:dc="http://purl.org/dc/elements/1.1/">
      <rdf:Description dc:format="image/svg+xml" dc:Label="1" dc:ContentProducer="001191330110MACRLGPT8B00000" dc:ProduceID="309844768" dc:ReservedCode1="OMFLOtjZuB+scKhquk1+4PEHp+G1EcyNKk8oAgSAXd4=" dc:ContentPropagator="001191330110MACRLGPT8B00000" dc:PropagateID="309844768" dc:ReservedCode2="OMFLOtjZuB+scKhquk1+4PEHp+G1EcyNKk8oAgSAXd4="/>
    </rdf:RDF>
  </metadata>
  <g transform="translate(0.000000,800.000000) scale(0.100000,-0.100000)" fill="#000000" stroke="none">
    <path d="M4059 5939 c-157 -23 -341 -90 -454 -164 -91 -61 -210 -180 -270 -270 -79 -120 -59 -114 -260 -85 -100 14 -180 12 -280 -5 -252 -44 -436 -217 -490 -460 -9 -38 -19 -81 -23 -95 -5 -16 -44 -51 -112 -100 -267 -191 -379 -384 -380 -650 0 -322 200 -579 525 -675 77 -23 114 -28 255 -32 154 -4 167 -3 198 16 71 45 93 136 49 202 -36 54 -73 65 -231 72 -159 6 -241 26 -319 78 -170 112 -228 333 -138 524 41 88 103 151 243 246 162 109 183 141 212 306 8 45 25 103 38 129 66 132 234 188 448 149 276 -51 361 -25 462 142 77 129 199 248 308 301 102 50 176 70 295 81 315 27 589 -88 751 -315 93 -130 125 -244 127 -450 2 -138 3 -142 32 -190 35 -55 105 -97 184 -109 80 -12 204 -55 272 -95 80 -47 142 -113 177 -188 24 -52 27 -69 27 -177 0 -110 -2 -125 -27 -178 -34 -71 -112 -155 -179 -192 -93 -50 -175 -66 -389 -73 -182 -7 -197 -8 -228 -30 -90 -64 -80 -194 18 -245 31 -16 58 -18 250 -14 193 4 224 7 300 29 213 63 352 162 458 326 120 186 136 471 37 680 -92 195 -243 318 -495 402 l-135 45 -7 110 c-25 385 -229 684 -582 851 -199 94 -458 134 -667 103z"/>
    <path d="M3198 4839 c-62 -9 -142 -54 -184 -103 -107 -125 -92 -310 33 -415 l43 -35 0 -611 c0 -503 3 -621 15 -673 52 -220 230 -362 454 -362 214 0 362 100 444 303 22 51 22 65 27 712 l5 660 24 34 c69 97 223 87 285 -19 21 -34 21 -50 24 -726 l3 -691 -41 -27 c-85 -56 -137 -169 -127 -276 9 -103 77 -199 175 -247 48 -23 70 -28 137 -28 71 0 88 4 147 33 70 34 108 73 149 152 32 63 32 175 0 243 -22 44 -121 147 -142 147 -5 0 -9 282 -9 703 0 600 -2 711 -15 762 -34 129 -121 230 -251 292 -65 31 -88 37 -168 41 -101 5 -170 -9 -258 -54 -61 -31 -146 -116 -181 -181 -55 -102 -57 -132 -57 -808 0 -585 -1 -622 -19 -655 -57 -107 -236 -104 -298 6 l-23 39 0 617 0 616 34 21 c41 26 80 76 108 138 16 37 19 60 16 117 -6 87 -30 137 -93 195 -72 67 -161 94 -257 80z m62 -295 c0 -17 -22 -14 -28 4 -2 7 3 12 12 12 9 0 16 -7 16 -16z m1271 -1900 c10 -13 10 -17 -2 -24 -17 -11 -45 13 -35 29 10 15 21 14 37 -5z"/>
  </g>
</svg>